<mxfile host="app.diagrams.net" modified="2023-01-31T01:37:28.551Z" agent="5.0 (Windows NT 10.0; Win64; x64) AppleWebKit/537.36 (KHTML, like Gecko) Chrome/109.0.0.0 Safari/537.36 Edg/109.0.1518.70" etag="YsXcwhxAlpm2BGx70rzU" version="20.8.13" type="github">
  <diagram name="Page-1" id="SXL7OL7QYjXtz--v6ZhW">
    <mxGraphModel dx="979" dy="652" grid="1" gridSize="10" guides="1" tooltips="1" connect="1" arrows="1" fold="1" page="1" pageScale="1" pageWidth="850" pageHeight="1100" math="0" shadow="0">
      <root>
        <mxCell id="0" />
        <mxCell id="1" parent="0" />
        <mxCell id="X_-8i7sMM-OYzqxWqjEP-1" value="start" style="strokeWidth=2;html=1;shape=mxgraph.flowchart.start_1;whiteSpace=wrap;rounded=1;sketch=1;curveFitting=1;jiggle=2;" vertex="1" parent="1">
          <mxGeometry x="375" y="50" width="100" height="60" as="geometry" />
        </mxCell>
        <mxCell id="X_-8i7sMM-OYzqxWqjEP-5" style="edgeStyle=orthogonalEdgeStyle;rounded=1;orthogonalLoop=1;jettySize=auto;html=1;sketch=1;curveFitting=1;jiggle=2;" edge="1" parent="1" source="X_-8i7sMM-OYzqxWqjEP-4" target="X_-8i7sMM-OYzqxWqjEP-1">
          <mxGeometry relative="1" as="geometry" />
        </mxCell>
        <mxCell id="X_-8i7sMM-OYzqxWqjEP-4" value="user input numbers" style="shape=parallelogram;html=1;strokeWidth=2;perimeter=parallelogramPerimeter;whiteSpace=wrap;rounded=1;arcSize=12;size=0.23;sketch=1;curveFitting=1;jiggle=2;" vertex="1" parent="1">
          <mxGeometry x="305" y="160" width="240" height="60" as="geometry" />
        </mxCell>
        <mxCell id="X_-8i7sMM-OYzqxWqjEP-7" style="edgeStyle=orthogonalEdgeStyle;rounded=1;orthogonalLoop=1;jettySize=auto;html=1;entryX=0.5;entryY=1;entryDx=0;entryDy=0;sketch=1;curveFitting=1;jiggle=2;" edge="1" parent="1" source="X_-8i7sMM-OYzqxWqjEP-6" target="X_-8i7sMM-OYzqxWqjEP-4">
          <mxGeometry relative="1" as="geometry" />
        </mxCell>
        <mxCell id="X_-8i7sMM-OYzqxWqjEP-6" value="calculate the sum of numbers" style="rounded=1;whiteSpace=wrap;html=1;absoluteArcSize=1;arcSize=14;strokeWidth=2;sketch=1;curveFitting=1;jiggle=2;" vertex="1" parent="1">
          <mxGeometry x="320" y="260" width="210" height="70" as="geometry" />
        </mxCell>
        <mxCell id="X_-8i7sMM-OYzqxWqjEP-13" style="edgeStyle=orthogonalEdgeStyle;rounded=1;orthogonalLoop=1;jettySize=auto;html=1;entryX=0.5;entryY=1;entryDx=0;entryDy=0;sketch=1;curveFitting=1;jiggle=2;" edge="1" parent="1" source="X_-8i7sMM-OYzqxWqjEP-12" target="X_-8i7sMM-OYzqxWqjEP-6">
          <mxGeometry relative="1" as="geometry" />
        </mxCell>
        <mxCell id="X_-8i7sMM-OYzqxWqjEP-12" value="print the sum of numbers" style="shape=parallelogram;html=1;strokeWidth=2;perimeter=parallelogramPerimeter;whiteSpace=wrap;rounded=1;arcSize=12;size=0.23;sketch=1;curveFitting=1;jiggle=2;" vertex="1" parent="1">
          <mxGeometry x="305" y="380" width="240" height="60" as="geometry" />
        </mxCell>
        <mxCell id="X_-8i7sMM-OYzqxWqjEP-16" value="" style="edgeStyle=orthogonalEdgeStyle;rounded=1;orthogonalLoop=1;jettySize=auto;html=1;sketch=1;curveFitting=1;jiggle=2;" edge="1" parent="1" source="X_-8i7sMM-OYzqxWqjEP-15" target="X_-8i7sMM-OYzqxWqjEP-12">
          <mxGeometry relative="1" as="geometry" />
        </mxCell>
        <mxCell id="X_-8i7sMM-OYzqxWqjEP-15" value="start" style="strokeWidth=2;html=1;shape=mxgraph.flowchart.start_1;whiteSpace=wrap;rounded=1;sketch=1;curveFitting=1;jiggle=2;" vertex="1" parent="1">
          <mxGeometry x="375" y="470" width="100" height="60" as="geometry" />
        </mxCell>
        <mxCell id="X_-8i7sMM-OYzqxWqjEP-26" value="" style="edgeStyle=orthogonalEdgeStyle;rounded=0;sketch=1;hachureGap=4;jiggle=2;curveFitting=1;orthogonalLoop=1;jettySize=auto;html=1;fontFamily=Architects Daughter;fontSource=https%3A%2F%2Ffonts.googleapis.com%2Fcss%3Ffamily%3DArchitects%2BDaughter;fontSize=16;" edge="1" parent="1" source="X_-8i7sMM-OYzqxWqjEP-20" target="X_-8i7sMM-OYzqxWqjEP-23">
          <mxGeometry relative="1" as="geometry" />
        </mxCell>
        <mxCell id="X_-8i7sMM-OYzqxWqjEP-20" value="start" style="ellipse;whiteSpace=wrap;html=1;sketch=1;hachureGap=4;jiggle=2;curveFitting=1;fontFamily=Architects Daughter;fontSource=https%3A%2F%2Ffonts.googleapis.com%2Fcss%3Ffamily%3DArchitects%2BDaughter;fontSize=20;" vertex="1" parent="1">
          <mxGeometry x="350" y="640" width="90" height="40" as="geometry" />
        </mxCell>
        <mxCell id="X_-8i7sMM-OYzqxWqjEP-33" style="edgeStyle=orthogonalEdgeStyle;rounded=0;sketch=1;hachureGap=4;jiggle=2;curveFitting=1;orthogonalLoop=1;jettySize=auto;html=1;fontFamily=Architects Daughter;fontSource=https%3A%2F%2Ffonts.googleapis.com%2Fcss%3Ffamily%3DArchitects%2BDaughter;fontSize=12;" edge="1" parent="1" source="X_-8i7sMM-OYzqxWqjEP-21" target="X_-8i7sMM-OYzqxWqjEP-32">
          <mxGeometry relative="1" as="geometry" />
        </mxCell>
        <mxCell id="X_-8i7sMM-OYzqxWqjEP-40" style="edgeStyle=orthogonalEdgeStyle;rounded=0;sketch=1;hachureGap=4;jiggle=2;curveFitting=1;orthogonalLoop=1;jettySize=auto;html=1;fontFamily=Architects Daughter;fontSource=https%3A%2F%2Ffonts.googleapis.com%2Fcss%3Ffamily%3DArchitects%2BDaughter;fontSize=20;" edge="1" parent="1" source="X_-8i7sMM-OYzqxWqjEP-21" target="X_-8i7sMM-OYzqxWqjEP-39">
          <mxGeometry relative="1" as="geometry" />
        </mxCell>
        <mxCell id="X_-8i7sMM-OYzqxWqjEP-21" value="&lt;font style=&quot;font-size: 12px;&quot;&gt;if x&amp;gt;Y&lt;/font&gt;" style="rhombus;whiteSpace=wrap;html=1;sketch=1;hachureGap=4;jiggle=2;curveFitting=1;fontFamily=Architects Daughter;fontSource=https%3A%2F%2Ffonts.googleapis.com%2Fcss%3Ffamily%3DArchitects%2BDaughter;fontSize=20;" vertex="1" parent="1">
          <mxGeometry x="355" y="760" width="80" height="80" as="geometry" />
        </mxCell>
        <mxCell id="X_-8i7sMM-OYzqxWqjEP-27" value="" style="edgeStyle=orthogonalEdgeStyle;rounded=0;sketch=1;hachureGap=4;jiggle=2;curveFitting=1;orthogonalLoop=1;jettySize=auto;html=1;fontFamily=Architects Daughter;fontSource=https%3A%2F%2Ffonts.googleapis.com%2Fcss%3Ffamily%3DArchitects%2BDaughter;fontSize=16;" edge="1" parent="1" source="X_-8i7sMM-OYzqxWqjEP-23" target="X_-8i7sMM-OYzqxWqjEP-21">
          <mxGeometry relative="1" as="geometry" />
        </mxCell>
        <mxCell id="X_-8i7sMM-OYzqxWqjEP-23" value="input x,y,z" style="shape=parallelogram;perimeter=parallelogramPerimeter;whiteSpace=wrap;html=1;fixedSize=1;sketch=1;hachureGap=4;jiggle=2;curveFitting=1;fontFamily=Architects Daughter;fontSource=https%3A%2F%2Ffonts.googleapis.com%2Fcss%3Ffamily%3DArchitects%2BDaughter;fontSize=20;" vertex="1" parent="1">
          <mxGeometry x="330" y="700" width="130" height="40" as="geometry" />
        </mxCell>
        <mxCell id="X_-8i7sMM-OYzqxWqjEP-53" style="edgeStyle=orthogonalEdgeStyle;rounded=0;sketch=1;hachureGap=4;jiggle=2;curveFitting=1;orthogonalLoop=1;jettySize=auto;html=1;entryX=1;entryY=0.765;entryDx=0;entryDy=0;entryPerimeter=0;fontFamily=Architects Daughter;fontSource=https%3A%2F%2Ffonts.googleapis.com%2Fcss%3Ffamily%3DArchitects%2BDaughter;fontSize=20;" edge="1" parent="1" source="X_-8i7sMM-OYzqxWqjEP-29" target="X_-8i7sMM-OYzqxWqjEP-50">
          <mxGeometry relative="1" as="geometry" />
        </mxCell>
        <mxCell id="X_-8i7sMM-OYzqxWqjEP-29" value="print xyz" style="shape=parallelogram;perimeter=parallelogramPerimeter;whiteSpace=wrap;html=1;fixedSize=1;sketch=1;hachureGap=4;jiggle=2;curveFitting=1;fontFamily=Architects Daughter;fontSource=https%3A%2F%2Ffonts.googleapis.com%2Fcss%3Ffamily%3DArchitects%2BDaughter;fontSize=20;" vertex="1" parent="1">
          <mxGeometry x="625" y="1020" width="130" height="40" as="geometry" />
        </mxCell>
        <mxCell id="X_-8i7sMM-OYzqxWqjEP-31" value="yes" style="text;html=1;strokeColor=none;fillColor=none;align=center;verticalAlign=middle;whiteSpace=wrap;rounded=0;fontSize=20;fontFamily=Architects Daughter;" vertex="1" parent="1">
          <mxGeometry x="425" y="770" width="60" height="20" as="geometry" />
        </mxCell>
        <mxCell id="X_-8i7sMM-OYzqxWqjEP-48" style="edgeStyle=orthogonalEdgeStyle;rounded=0;sketch=1;hachureGap=4;jiggle=2;curveFitting=1;orthogonalLoop=1;jettySize=auto;html=1;fontFamily=Architects Daughter;fontSource=https%3A%2F%2Ffonts.googleapis.com%2Fcss%3Ffamily%3DArchitects%2BDaughter;fontSize=20;" edge="1" parent="1" source="X_-8i7sMM-OYzqxWqjEP-32" target="X_-8i7sMM-OYzqxWqjEP-35">
          <mxGeometry relative="1" as="geometry" />
        </mxCell>
        <mxCell id="X_-8i7sMM-OYzqxWqjEP-55" style="edgeStyle=orthogonalEdgeStyle;rounded=0;sketch=1;hachureGap=4;jiggle=2;curveFitting=1;orthogonalLoop=1;jettySize=auto;html=1;fontFamily=Architects Daughter;fontSource=https%3A%2F%2Ffonts.googleapis.com%2Fcss%3Ffamily%3DArchitects%2BDaughter;fontSize=20;entryX=0.5;entryY=0;entryDx=0;entryDy=0;" edge="1" parent="1" source="X_-8i7sMM-OYzqxWqjEP-32" target="X_-8i7sMM-OYzqxWqjEP-54">
          <mxGeometry relative="1" as="geometry">
            <mxPoint x="170" y="940" as="targetPoint" />
          </mxGeometry>
        </mxCell>
        <mxCell id="X_-8i7sMM-OYzqxWqjEP-32" value="&lt;font style=&quot;font-size: 12px;&quot;&gt;else z&amp;gt;x&lt;/font&gt;" style="rhombus;whiteSpace=wrap;html=1;sketch=1;hachureGap=4;jiggle=2;curveFitting=1;fontFamily=Architects Daughter;fontSource=https%3A%2F%2Ffonts.googleapis.com%2Fcss%3Ffamily%3DArchitects%2BDaughter;fontSize=20;" vertex="1" parent="1">
          <mxGeometry x="215" y="850" width="80" height="80" as="geometry" />
        </mxCell>
        <mxCell id="X_-8i7sMM-OYzqxWqjEP-34" value="&lt;font style=&quot;font-size: 20px;&quot;&gt;no&lt;/font&gt;" style="text;html=1;strokeColor=none;fillColor=none;align=center;verticalAlign=middle;whiteSpace=wrap;rounded=0;fontSize=12;fontFamily=Architects Daughter;" vertex="1" parent="1">
          <mxGeometry x="295" y="770" width="60" height="30" as="geometry" />
        </mxCell>
        <mxCell id="X_-8i7sMM-OYzqxWqjEP-52" style="edgeStyle=orthogonalEdgeStyle;rounded=0;sketch=1;hachureGap=4;jiggle=2;curveFitting=1;orthogonalLoop=1;jettySize=auto;html=1;fontFamily=Architects Daughter;fontSource=https%3A%2F%2Ffonts.googleapis.com%2Fcss%3Ffamily%3DArchitects%2BDaughter;fontSize=20;" edge="1" parent="1" source="X_-8i7sMM-OYzqxWqjEP-35" target="X_-8i7sMM-OYzqxWqjEP-50">
          <mxGeometry relative="1" as="geometry">
            <Array as="points">
              <mxPoint x="405" y="930" />
              <mxPoint x="405" y="930" />
            </Array>
          </mxGeometry>
        </mxCell>
        <mxCell id="X_-8i7sMM-OYzqxWqjEP-35" value="print yzx" style="shape=parallelogram;perimeter=parallelogramPerimeter;whiteSpace=wrap;html=1;fixedSize=1;sketch=1;hachureGap=4;jiggle=2;curveFitting=1;fontFamily=Architects Daughter;fontSource=https%3A%2F%2Ffonts.googleapis.com%2Fcss%3Ffamily%3DArchitects%2BDaughter;fontSize=20;" vertex="1" parent="1">
          <mxGeometry x="330" y="870" width="130" height="40" as="geometry" />
        </mxCell>
        <mxCell id="X_-8i7sMM-OYzqxWqjEP-36" value="yes" style="text;html=1;strokeColor=none;fillColor=none;align=center;verticalAlign=middle;whiteSpace=wrap;rounded=0;fontSize=20;fontFamily=Architects Daughter;" vertex="1" parent="1">
          <mxGeometry x="295" y="860" width="60" height="20" as="geometry" />
        </mxCell>
        <mxCell id="X_-8i7sMM-OYzqxWqjEP-38" value="&lt;font style=&quot;font-size: 20px;&quot;&gt;no&lt;/font&gt;" style="text;html=1;strokeColor=none;fillColor=none;align=center;verticalAlign=middle;whiteSpace=wrap;rounded=0;fontSize=12;fontFamily=Architects Daughter;" vertex="1" parent="1">
          <mxGeometry x="150" y="855" width="60" height="30" as="geometry" />
        </mxCell>
        <mxCell id="X_-8i7sMM-OYzqxWqjEP-44" style="edgeStyle=orthogonalEdgeStyle;rounded=0;sketch=1;hachureGap=4;jiggle=2;curveFitting=1;orthogonalLoop=1;jettySize=auto;html=1;entryX=0;entryY=0.5;entryDx=0;entryDy=0;fontFamily=Architects Daughter;fontSource=https%3A%2F%2Ffonts.googleapis.com%2Fcss%3Ffamily%3DArchitects%2BDaughter;fontSize=20;" edge="1" parent="1" source="X_-8i7sMM-OYzqxWqjEP-39" target="X_-8i7sMM-OYzqxWqjEP-29">
          <mxGeometry relative="1" as="geometry" />
        </mxCell>
        <mxCell id="X_-8i7sMM-OYzqxWqjEP-47" style="edgeStyle=orthogonalEdgeStyle;rounded=0;sketch=1;hachureGap=4;jiggle=2;curveFitting=1;orthogonalLoop=1;jettySize=auto;html=1;fontFamily=Architects Daughter;fontSource=https%3A%2F%2Ffonts.googleapis.com%2Fcss%3Ffamily%3DArchitects%2BDaughter;fontSize=20;" edge="1" parent="1" source="X_-8i7sMM-OYzqxWqjEP-39" target="X_-8i7sMM-OYzqxWqjEP-45">
          <mxGeometry relative="1" as="geometry" />
        </mxCell>
        <mxCell id="X_-8i7sMM-OYzqxWqjEP-39" value="&lt;font style=&quot;font-size: 12px;&quot;&gt;else y&amp;gt;z&lt;/font&gt;" style="rhombus;whiteSpace=wrap;html=1;sketch=1;hachureGap=4;jiggle=2;curveFitting=1;fontFamily=Architects Daughter;fontSource=https%3A%2F%2Ffonts.googleapis.com%2Fcss%3Ffamily%3DArchitects%2BDaughter;fontSize=20;" vertex="1" parent="1">
          <mxGeometry x="485" y="850" width="80" height="80" as="geometry" />
        </mxCell>
        <mxCell id="X_-8i7sMM-OYzqxWqjEP-41" value="yes" style="text;html=1;strokeColor=none;fillColor=none;align=center;verticalAlign=middle;whiteSpace=wrap;rounded=0;fontSize=20;fontFamily=Architects Daughter;" vertex="1" parent="1">
          <mxGeometry x="565" y="860" width="60" height="20" as="geometry" />
        </mxCell>
        <mxCell id="X_-8i7sMM-OYzqxWqjEP-42" value="&lt;font style=&quot;font-size: 20px;&quot;&gt;no&lt;/font&gt;" style="text;html=1;strokeColor=none;fillColor=none;align=center;verticalAlign=middle;whiteSpace=wrap;rounded=0;fontSize=12;fontFamily=Architects Daughter;" vertex="1" parent="1">
          <mxGeometry x="475" y="930" width="60" height="30" as="geometry" />
        </mxCell>
        <mxCell id="X_-8i7sMM-OYzqxWqjEP-51" style="edgeStyle=orthogonalEdgeStyle;rounded=0;sketch=1;hachureGap=4;jiggle=2;curveFitting=1;orthogonalLoop=1;jettySize=auto;html=1;fontFamily=Architects Daughter;fontSource=https%3A%2F%2Ffonts.googleapis.com%2Fcss%3Ffamily%3DArchitects%2BDaughter;fontSize=20;" edge="1" parent="1" source="X_-8i7sMM-OYzqxWqjEP-45" target="X_-8i7sMM-OYzqxWqjEP-50">
          <mxGeometry relative="1" as="geometry" />
        </mxCell>
        <mxCell id="X_-8i7sMM-OYzqxWqjEP-45" value="print xzy" style="shape=parallelogram;perimeter=parallelogramPerimeter;whiteSpace=wrap;html=1;fixedSize=1;sketch=1;hachureGap=4;jiggle=2;curveFitting=1;fontFamily=Architects Daughter;fontSource=https%3A%2F%2Ffonts.googleapis.com%2Fcss%3Ffamily%3DArchitects%2BDaughter;fontSize=20;" vertex="1" parent="1">
          <mxGeometry x="460" y="980" width="130" height="40" as="geometry" />
        </mxCell>
        <mxCell id="X_-8i7sMM-OYzqxWqjEP-50" value="end" style="ellipse;whiteSpace=wrap;html=1;sketch=1;hachureGap=4;jiggle=2;curveFitting=1;fontFamily=Architects Daughter;fontSource=https%3A%2F%2Ffonts.googleapis.com%2Fcss%3Ffamily%3DArchitects%2BDaughter;fontSize=20;" vertex="1" parent="1">
          <mxGeometry x="360" y="1100" width="90" height="40" as="geometry" />
        </mxCell>
        <mxCell id="X_-8i7sMM-OYzqxWqjEP-56" style="edgeStyle=orthogonalEdgeStyle;rounded=0;sketch=1;hachureGap=4;jiggle=2;curveFitting=1;orthogonalLoop=1;jettySize=auto;html=1;fontFamily=Architects Daughter;fontSource=https%3A%2F%2Ffonts.googleapis.com%2Fcss%3Ffamily%3DArchitects%2BDaughter;fontSize=20;" edge="1" parent="1" source="X_-8i7sMM-OYzqxWqjEP-54" target="X_-8i7sMM-OYzqxWqjEP-50">
          <mxGeometry relative="1" as="geometry" />
        </mxCell>
        <mxCell id="X_-8i7sMM-OYzqxWqjEP-54" value="print yxz" style="shape=parallelogram;perimeter=parallelogramPerimeter;whiteSpace=wrap;html=1;fixedSize=1;sketch=1;hachureGap=4;jiggle=2;curveFitting=1;fontFamily=Architects Daughter;fontSource=https%3A%2F%2Ffonts.googleapis.com%2Fcss%3Ffamily%3DArchitects%2BDaughter;fontSize=20;" vertex="1" parent="1">
          <mxGeometry x="100" y="970" width="130" height="40" as="geometry" />
        </mxCell>
      </root>
    </mxGraphModel>
  </diagram>
</mxfile>
